<svg width="446" height="563" viewBox="0 0 446 563" fill="none" xmlns="http://www.w3.org/2000/svg"><ellipse cx="223" cy="262.5" rx="223" ry="223.5" fill="#C4E2FF"/><g clip-path="url(#a)"><path d="M271.1 54.7c-2.2-3.8-7.6-4.8-10.1-8.4-3-4.2-1.2-10.5-4.5-14.4-2.2-2.2-5-3.4-8.1-3.4-3 0-6-.3-9-1-5.1-1.6-8.9-6.6-14.2-7.7a12 12 0 0 0-13.4 8.2c-.3 1-.5 2.1-.5 3.2a9.8 9.8 0 0 0-7.2 3.2c-1.9 2.1-2.8 5-4.8 7.1-2 2.1-5 3.4-6.7 6-.9 1.3-1.4 3-1.6 4.5-.9 5.4-.4 11.3 3 15.6 3.3 4.2 10 6 14.3 2.8 0 0 30.3 14.3 36.5 18.2a18 18 0 0 0 20.3-1.3 5.6 5.6 0 0 0 2.4-3.7c-.2-1.5-.6-3-1.3-4.3-1.5-4.1.9-8.5 3-12.3 2-3.9 4-8.5 1.9-12.3Z" fill="#333"/><path d="M198.4 57.8c2.3-14.6 17-39.1 42.8-24C249.4 38.4 253 47 254.5 56c1.2 6.3-1 64.3-1 64.3-1.9 22.8-37.5 26.2-39.8-.2l.7-16.4c-18.7-6-18.6-29.5-16-46Z" fill="#F9C4B4"/><path d="M214.4 103.8s10.7 3.5 30.7-8.9a65.5 65.5 0 0 1-31.3 22.9l.6-14Z" fill="#333"/><path d="M268 65.5a10.4 10.4 0 0 0-20.3-1.7 10.4 10.4 0 0 0 11.1 13 10.2 10.2 0 0 0 9.1-11.3Z" fill="#F9C4B4"/><path d="M259.5 62.2a10.5 10.5 0 0 0-5.2 3.9c-.4.6-.8 1.3-1 2-.4-.8-.5-1.7-.2-2.6a5.2 5.2 0 0 1 3.8-3.6c.9-.2 1.8-.1 2.6.3Z" fill="#251B2D"/><path d="M228.4 53.6c0 .9-1.5 1.6-3 1.4-1.7-.1-3-1-3-1.8.1-1 1.5-1.6 3.1-1.5 1.7.2 3 1 2.9 1.9ZM209.6 53c0 1-1.5 1.6-3 1.4-1.7-.3-3-1-2.9-2 .1-.9 1.5-1.6 3-1.4 1.7.3 3 1 2.9 2Z" fill="#371C09"/><path d="M235.3 88.8a10.8 10.8 0 1 0 0-21.6 10.8 10.8 0 0 0 0 21.6Z" fill="#333" style="mix-blend-mode:soft-light" opacity=".5"/><path d="M206 61.8c0 1.1.4 2 1 2.1.7 0 1.3-.8 1.4-2 0-1-.4-2-1-2-.7-.1-1.3.8-1.4 2ZM222.7 62.4c0 1.1.3 2 1 2 .7.1 1.2-.7 1.3-1.9 0-1.1-.4-2-1-2-.7-.1-1.3.8-1.3 1.9Z" fill="#333" stroke="#333" stroke-width=".5" stroke-miterlimit="10"/><path d="M197.6 64.4a63 63 0 0 0 1.1 21.5 10.8 10.8 0 0 0-1.1-21.5Z" fill="#333" style="mix-blend-mode:soft-light" opacity=".5"/><path d="M220.5 77c-.3 1-.9 2-1.7 2.6-.8.8-2 1.3-3 1.3-1.3 0-2.4-.5-3.3-1.4a4.8 4.8 0 0 1-1.4-2.7l2.4 1.4a5 5 0 0 0 2.2.6c.7 0 1.5-.2 2.2-.6.9-.3 1.6-.8 2.6-1.2Z" fill="#333"/><path d="M214.3 56.5c.1 2.4 0 4.8-.2 7.2l-.5 3.5a91 91 0 0 1-.6 3.6l-.6-.8c1.8.5 3.5 1 5.2 1.8a39 39 0 0 1-5.4-.4h-.7v-.8a68.4 68.4 0 0 1 2.8-14.1Z" fill="#251B2D"/><path d="M220.5 77c-.3 1-.9 2-1.7 2.6-.8.8-2 1.3-3 1.3-1.3 0-2.4-.5-3.3-1.4a4.8 4.8 0 0 1-1.4-2.7l2.4 1.4a5 5 0 0 0 2.2.6c.7 0 1.5-.2 2.2-.6.9-.3 1.6-.8 2.6-1.2ZM256.9 48a30.7 30.7 0 0 0-6-9.6 48 48 0 0 0-11.9-7.7c-2-.9-4.2-1.5-6.4-2-3.4-1-7-1.2-10.6-.8-3 .4-6 1.8-8.2 4a31.4 31.4 0 0 0-8.4 9l-4.2 6c.9-.2 1.7-.5 2.6-.9 1.2-.7 2.3-1.6 3.3-2.6 2.8-2.3 5-5.3 6.6-8.6.8 2.3 2.5 4.3 4.7 5.6 2.9 1.4 6 2 9.2 1.7 2.6-.1 5.4-.5 7.9.4a10.1 10.1 0 0 1 5.3 5.7c1 2.6 1.6 5.2 1.9 7.9 0 1.2.4 2.3 1.2 3.2.5.5 1.2.9 2 1 3.2.5 6.1-1.3 8.6-3.4a7.8 7.8 0 0 0 3.3-5c0-1.4-.3-2.7-1-4Z" fill="#333"/><path d="M134.9 189.3c18.6-26.5 66.7-65 66.7-65l12.3 10-35.5 75.2s-23.6 45.1-40 46.3c-25.2 1.8-27.7-32.2-3.5-66.5Z" fill="#F9C4B4"/><path d="m201 161-22.2-17.6-32.7 32.3 30.8 35L201 161Z" fill="#333" style="mix-blend-mode:soft-light" opacity=".5"/><path d="m186 194.3-38.6-31s44.7-53.6 74.9-42.2l-11.6 21-24.8 52.2Z" fill="#BAD2C8"/><path d="m128.5 162.7-3.7 1.6c-8.2 3.5-16.5 6.8-24.8 10.2 4.6 27.5 12.7 59.8 20.9 71.6 10.3 14.8 37.8.5 36.5-13.7-.4-5.5-19.5-48.7-28.9-69.7Z" fill="#F9C4B4"/><path d="M134.5 172.2c-4-6.8-7.4-14-10.2-21.3.4-1.1 3.2-14 1.8-17.3-2-5.3-11.4 6-11.5 8.8-.3-2.7-2.7-24.8-6.8-24.4-2.4.2-1.2 15.1-1.2 15.1s-6.9-19.2-8.9-18.4c-2 .7 3.3 19.4 3.3 19.4s-7-14-9.2-13c-2 1 3.3 16 3.3 16s-7-8-8.8-7c-1.9 1 5 13.4 6 17.2.7 2.5 4 28.1 8.4 42 .5-.2 24.7-12 33.8-17Z" fill="#FC9B27"/><path d="M134.5 172.2s1.8 1.1 1.2 1.8c-.5.8-33.6 18.2-34.6 16.6l-1-1.6 34.4-16.8Z" fill="#FCB970"/><path d="m138.7 184.7 8.5 18.3" stroke="#333" stroke-width="1.1" stroke-miterlimit="10" stroke-linecap="round"/><path d="M247.7 246.8c-6.6-18-53.9-6.7-53.9-6.7s-22.3 80.4-28 163.3c-6.5 96.4 19.2 204.2 19.2 204.2 15.3 3.2 43.1 2 43.1 2V457.9c0-.3 5-97.7 12.2-126.5 9.8-39.2 7.4-84.6 7.4-84.6Z" fill="#3F5B99"/><path d="M288.8 247.9c-6.6-18-59.6-7-59.6-7s-7.4 23.8-8.7 69.2c-.5 16.4 5.6 79.8 4.9 90.3-6.6 96.5 17.7 207 17.7 207 15.4 3.1 43.2 2 43.2 2V457.6c0-.3 5-97.8 12.2-126.5 9.9-39.3-9.7-83.3-9.7-83.3Z" fill="#435CA1"/><path d="M268.7 278.7c-18.9-1.8-38.2.5-56.8 4.5-7.4 1.6-14.7 3.4-22 5.5 1 2.8 2.7 5.4 4.9 7.4 8 7.3 20.4 4.8 31.2 5.3 24.2 1.3 45 20.6 69.2 20.1 1.8 0 3.5-.2 5.3-.5 1.3-11.9 1-23.8-1-35.6-10-3.2-20.3-5.5-30.8-6.7Z" fill="#333" style="mix-blend-mode:soft-light" opacity=".5"/><path d="M271.5 299.2s-11.1 49.6 8.6 52.8" stroke="#6693B9" stroke-width="1.2" stroke-miterlimit="10" stroke-linecap="round"/><path d="M284.3 298.6c-4.2 55.4-4 54.5-7.4 82.2-3.2 25.6-7 119 1 194.2M189.3 292.8s-.6 50-17 53M221.2 288.1s-5.3 180.6 7.6 226" stroke="#6693B9" stroke-width="1.2" stroke-miterlimit="10" stroke-linecap="round"/><path d="M232.7 290.2s3.5 61.7-11 55.7" stroke="#6693B9" stroke-width="1.2" stroke-miterlimit="10" stroke-linecap="round"/><path d="m252.7 117.2-38.7 1.6-8 .6c-12.2 6-14 15.8-18.2 28.4-10.3 30.3-8.3 72.2-5.3 100.2 0 0-10.3 34.7-3.4 41.9 8.5 8.8 34.9-4.1 47-1.8 11.9 2.2 29 9.5 49.9 10 53 1.4 23-27.3 22.8-38.3 10.5-19.5 5-68.3-9.3-106.4-5.3-13.9-13-27.5-26-34.5a28.5 28.5 0 0 0-10.8-1.7Z" fill="#BAD2C8"/><path d="M206.3 119.4s-17.9 125.8-13 173.6c.3 2.4 9.3-1.8 9.3-1.8-2.6-38.5 10.2-172.3 10.2-172.3l-6.5.5ZM261.9 117.8s14.3 132.7 9.4 180.6c-.2 2.3-9.3-1.9-9.3-1.9 2.6-38.4-6.6-179.2-6.6-179.2l6.5.5Z" fill="#2D458B"/><path d="M317.1 213.7c-7.3-31.5-37.3-85.3-37.3-85.3l-15.2 4.8 4.6 83s5 50.6 19.6 57.9c22.7 11 37.8-19.4 28.3-60.4Z" fill="#F9C4B4"/><path d="m266.5 162.7 27.2-8 18.2 42.3-41.8 20.8-3.6-55.1Z" fill="#333" style="mix-blend-mode:soft-light" opacity=".5"/><path d="m268 199.2 47.3-14.2s-21.3-66.5-53.5-67.2l2.8 23.9 3.4 57.5Z" fill="#BAD2C8"/><path d="M169.9 200.3c-.3-.8-10.3-14.6-10.3-14.6s.6-11.5 12-11.7c11.5-.3 110.8-2.6 85.3 23.4s-87 2.9-87 2.9Z" fill="#3F1F1F"/><path d="M254.8 191a45 45 0 0 1 4.1-18.7c8.5-21.6 21.4-42.2 40.5-55.3a114.6 114.6 0 0 0-37.7 77.6" fill="#698937"/><path d="M258 191.9a120 120 0 0 1 49-62.5l-10 11c-12.3 13.5-25.3 28.6-26 46.9" fill="#698937"/><path d="M193.6 222.4a30.2 30.2 0 0 1 8.9-59c4 0 8.2.8 12.3 0 6-1.1 11.8-5.7 17.7-3.8 2 .6 3.8 2 5.9 2.8 5 2 11-.4 16.2 1.1 5.3 1.5 9 6.6 11.4 11.6 2.4 4.5 4 9.4 4.7 14.4 2.2 18.1-12.8 35.2-30.5 40.2s-39-1-54-10.7" fill="#FC9A54"/><path d="M217 168.2c-2.7-4.9-5.7-9.6-9-14a4.9 4.9 0 0 1 2.4-7.7h1.2c2 0 3.3 2 4.1 3.9 2.7 5.7 4.3 12 4.6 18.3" fill="#58302F"/><g style="mix-blend-mode:overlay" opacity=".3"><path d="M203.5 220.3c-.5.2-2.7-2.6-4.7-8.2a48.3 48.3 0 0 1 1.4-34.7c.7-1.8 1.8-3.4 3-4.9 1.2-1.2 2.5-2.3 3.9-3.2a22 22 0 0 1 6.5-2.6c1.6-.4 2.5-.4 2.6-.1 0 .2-.7.8-2 1.6a39 39 0 0 0-5.4 3.5 16 16 0 0 0-5 7.3 55.8 55.8 0 0 0-2.1 32.4c1 5.4 2.4 8.6 1.8 8.9ZM234.6 217.7c-.6.1-1.8-2.9-2.5-8l-.7-8.7c-.1-3.3-.3-6.8-.8-10.4-.4-3.4-1.2-6.7-2.4-9.8-1-2.6-2.4-5-4.1-7-1.5-2-2.8-3.6-3.5-4.8-.8-1.3-1-2-.8-2.2.2-.2.9.2 2 1l4.5 4c2.3 2 4 4.6 5.4 7.4 1.6 3.4 2.6 7 3 10.8.5 3.6.7 7.2.6 10.9l-.2 8.6c-.1 5 0 8-.5 8.2Z" fill="#333" style="mix-blend-mode:overlay" opacity=".3"/><path d="M260.3 221.6c-.6 0-1.4-4.5-2.4-11.8-.4-3.7-1-8-1.4-12.9a68.4 68.4 0 0 0-2.5-15 17 17 0 0 0-9-10.5 30.2 30.2 0 0 0-11.8-3h-8.6c-2.1-.1-3.2-.1-3.3-.4 0-.3 1-.7 3.1-1.2a49 49 0 0 1 8.8-1.2c4.6-.3 9.2.5 13.4 2.3a20.2 20.2 0 0 1 11.3 12.6 60.4 60.4 0 0 1 2.4 16.2c.3 4.9.5 9.2.5 13 .2 7.3 0 11.9-.5 12ZM215.4 165.7c0 .7-4 .4-9.9 1.8-3.4.7-6.7 2-9.8 3.7a22.6 22.6 0 0 0-9.2 8 32.4 32.4 0 0 0-3.2 12.3l-1.3 10.9c-.7 6.2-1.3 10.1-2 10.1-.5 0-.9-4-1-10.3 0-3.2.2-7 .5-11.1.1-4.8 1.3-9.6 3.5-13.9 1.3-2.2 3-4.2 5-5.8a34.7 34.7 0 0 1 17-6.8c6.6-.7 10.6.7 10.4 1.1Z" fill="#333" style="mix-blend-mode:overlay" opacity=".3"/></g><path d="M161.2 152a36 36 0 0 1 1.6-40c3.6 13.6 3.8 27.9.5 41.6" fill="#446815"/><path d="M158.8 156.2a45.8 45.8 0 0 1-21-42c9.9 11.2 17.8 24 23.2 38" fill="#698937"/><path d="M156.7 153.6a23.3 23.3 0 0 1-20.6-14.8c10.3 1 19.9 5.5 27 13" fill="#446815"/><path d="M160.8 155.2a36.9 36.9 0 0 1-9.8-32.5c7.5 7.5 11.9 17.7 12.2 28.3" fill="#88AA4D"/><path d="M160.7 152c-4-1.5-8.3 2.7-8.6 7-.3 4.2 2 8.2 4.4 11.8 10.4 16.2 22 31.6 33.7 47 2-.7 1.8-3.5 1.3-5.5a347.8 347.8 0 0 0-19.7-57.3c-.6-1.9-1.7-3.5-3.3-4.8a3.7 3.7 0 0 0-5.1.8" fill="#F78131"/><g opacity=".4"><path d="M162.5 163.8c.6 1-.7 2.7-3 3.6-2.2 1-4.4.6-4.8-.4-.4-1.1 1.1-2.6 3.2-3.4 2.1-.9 4.1-.9 4.6.2ZM170.4 171.1c-.1-1.1 1.3-2.2 3-2.7 1.7-.6 3.4-.5 4 .5.6 1-.6 2.7-2.8 3.4-2.2.7-4.1 0-4.2-1.2ZM174.3 183.8c.5 1-.3 2.5-1.8 3.2-1.5.7-3.2.6-3.7-.4s.3-2.5 1.8-3.2c1.5-.7 3.2-.6 3.7.4ZM166 149.8c0 1.1-2.3 2-4.8 2.8-2.4.8-4.8 1.4-5.6.5-.3-.4-.1-1.2.6-2.1 1-1.1 2.3-2 3.7-2.4 1.4-.5 3-.6 4.4-.3 1 .3 1.7.9 1.7 1.5Z" fill="#333" style="mix-blend-mode:overlay" opacity=".4"/></g><path d="M166 149.8c0 1.1-2.3 2-4.8 2.8-2.4.8-4.8 1.4-5.6.5-.3-.4-.1-1.2.6-2.1 1-1.1 2.3-2 3.7-2.4 1.4-.5 3-.6 4.4-.3 1 .3 1.7.9 1.7 1.5Z" fill="#333"/><path d="M170.8 232c21.5 6.5 44 9.2 66.4 7.8 11.8-.8 25-3.5 31.3-13.7 3.5-5.8 4.2-13 4.7-19.9l1.1-14.3c.2-2 0-4.4-1.8-5a4.6 4.6 0 0 0-3.5.7c-19 10.2-41.6 9-63 7.6-16-1-31.5-3.7-46.5-9.5.1 0-4 41.4 11.3 46.3Z" fill="#58302F"/><path d="M242 200.7a52.6 52.6 0 0 1 10.1-20c5-5.5 12.5-9.4 20-8.4 8 1 14.3 7 19 13.4a78.3 78.3 0 0 1 14.5 36.3c.5 2.6.4 5.2-.2 7.7a7.1 7.1 0 0 1-5.4 5c-4 .6-7.1-3.3-9.3-6.7l-11.5-18.2a54.5 54.5 0 0 0-9-11.8 18.5 18.5 0 0 0-13.5-5.3c-5 .4-9.8 4-10.4 9" fill="#446815"/><g style="mix-blend-mode:overlay"><path d="M298 216.3a67 67 0 0 1-6.6-9.3l-6.6-10.3a38.3 38.3 0 0 0-9.7-10.9 15.7 15.7 0 0 0-13.4-2.7 24.3 24.3 0 0 0-9.8 6.5c-4.8 4.9-6.9 8.8-7.1 8.6.2-1 .6-2 1.2-2.8 1.4-2.4 3-4.7 5-6.7 2.6-3.3 6.2-5.8 10.2-7.2 2.4-.8 5-1 7.6-.4 2.6.5 5.1 1.6 7.4 3.1 4 3.1 7.5 7 10 11.5l6.4 10.6c3.5 6 5.6 9.8 5.3 10Z" fill="#333" style="mix-blend-mode:overlay"/><path d="M276.6 201.1c-.3-.1.2-1.2.3-3 .3-2.3 0-4.7-.9-6.9s-2-4.3-3.2-6.3c-1-1.6-1.5-2.8-1.2-3a22.6 22.6 0 0 1 6.3 8.7 13 13 0 0 1 .4 7.8c-.6 1.9-1.5 2.8-1.7 2.7ZM285.8 211.7c-.5 0-.6-3.6-.6-8 0-4.5 0-8 .6-8.1.5 0 1.2 3.6 1.2 8 0 4.6-.7 8.2-1.2 8.1Z" fill="#333" style="mix-blend-mode:overlay"/><path d="M285.7 182.4c0 .5-3 1-6.5 1-3.6.2-6.5 0-6.6-.5 0-.6 2.9-1.2 6.5-1.3 3.7-.2 6.6.3 6.6.8ZM294.3 196.3c0 .5-2.2 1-4.7.1-2.5-.7-4-2.3-3.7-2.7.3-.4 2 .3 4.3 1 2.2.6 4.1 1 4.1 1.6Z" fill="#333" style="mix-blend-mode:overlay"/></g><path d="M239.7 195.7s12.5-1.6 16.2-2.8l-.9 12-16.6.8 1.3-10Z" fill="#58302F"/><path d="M307.2 238c-4.6-2.8-50-12.7-72.7-17.4-3.4 9.5-7 19-10.7 28.3 25.4 13 58 26.5 73 26.8 18 .3 22.7-30.3 10.4-37.6Z" fill="#F9C4B4"/><path d="m270.1 228.4 20.7 4" stroke="#333" stroke-width="1.1" stroke-miterlimit="10" stroke-linecap="round"/><path d="m244.5 221-23.3-4.8c-.5-1-7.4-14-10.7-15.3-5.2-2.1-3 10.7-1 12.7-2.1-1.6-20.7-12.3-23.3-10.3-2 1.4 10.6 11.5 10.6 11.5s-18.8-8-19.6-6c-.8 2 16.5 10.8 16.5 10.8s-15-4.4-15.7-2.1c-.7 2 13.9 8.3 13.9 8.3s-10.6-.2-11.2 1.8c-.6 2 15.3 6 18.4 7.1 8.4 5.4 21.7 16.4 34.8 22.7.3-.5 8-26.3 10.6-36.4Z" fill="#FC9B27"/><path d="M244.5 221s2-.5 2.2.4c.1.8-9.6 37-11.4 36.6l-1.8-.4 11-36.6Z" fill="#FCB970"/></g><defs><clipPath id="a"><path fill="#fff" transform="translate(86)" d="M0 0h273v627H0z"/></clipPath></defs></svg>