<svg width="44" height="44" viewBox="0 0 44 44" fill="none" xmlns="http://www.w3.org/2000/svg"><g clip-path="url(#a)"><path d="M30.3 7.3c-.8-3.8-3.1-6.4-4.2-7-2.3-1-3 .8-4.1.8-1 0-1.8-1.9-4.1-.7-1 .5-3.4 3-4.2 6.9C13 11 22 8 22 8s9 3 8.3-.7Z" fill="#FFD24F"/><path d="M22 18.6c8.7 0 15.8-2.6 15.8-5.9 0-3.2-7-5.8-15.8-5.8-8.7 0-15.8 2.6-15.8 5.8 0 3.3 7 5.9 15.8 5.9Z" fill="#FFBE1E"/><path d="M12.7 17c-1-.3-1.7.3-1.7 1.3 0 1.5 1.4 5 2.8 2.8 1.5-2.2-1.1-4.1-1.1-4.1ZM31.1 17c1.2-.3 1.9.3 1.9 1.3 0 1.5-1.5 5-3.1 2.8s1.2-4.1 1.2-4.1Z" fill="#FFE1B2"/><path d="M14.4 29.5c1.6-1 1.4-4 1.4-4.6h12.4c0 .6-.2 3.6 1.3 4.6L22 37.9l-7.6-8.4Z" fill="#FFD7A3"/><path d="m26.8 32.4 2.7-3c-1.5-.9-1.3-3.9-1.3-4.5H15.8c.9 2.5 6.8 6.9 11 7.5Z" fill="#FDC88E"/><path d="M37.8 44c1.2 0 2.1-1 2.1-2v-4.2a8 8 0 0 0-5.2-7.2l-4.4-1.3C28 31 24.7 33.5 22 33.5c-2.7 0-6-2.5-8.3-4.2l-4.4 1.3a8 8 0 0 0-5.2 7.2V42c0 1.2 1 2.1 2 2.1h31.7Z" fill="#FF6953"/><path d="M39.9 42.4h-1.1v-1.5h1.1v-1h-1.1v-1.5h1.1v-1h-1.1v-1.5h.8l-.4-1h-.4V34l-1.4-1.7h-1.1v-1l-1.6-.8-2.5-.7h-1v-.3l-.9-.3v.6h-.7l-1.9 1.3v1.2h-1.4V32c-1.2.6-2.5 1.2-3.6 1.3V35h-1.4v-1.5c-1.1-.1-2.4-.7-3.6-1.3v.3h-1.4v-1.2l-1.9-1.3h-.6v-.5l-.1-.1-1 .3v.3h-.9l-2.5.7-1.6.8v1H6.6c-.5.5-1 1-1.4 1.7v.8h-.4l-.4 1h.8v1.5h-1l-.1.4v.6h1.1V40H4.1v1h1.1v1.5h-1c0 .4.2.7.5 1h.5v.4l1 .2v-.6h1.5v.6h1v-.6h1.5v.6h1v-.6h1.5v.6h1v-.6h1.5v.6h1v-.6h1.5v.6h1v-.6h1.5v.6h1v-.6h1.5v.6h1v-.6h1.5v.6h1v-.6h1.5v.6h1v-.6h1.5v.6h1v-.6h1.5v.6h1v-.6h1.5v.6h1v-.6h1.5v.6h.1c.4 0 .7 0 1-.2v-.4h.5c.3-.3.5-.6.6-1Zm-32.2 0H6.3v-1.5h1.4v1.5Zm0-2.5H6.3v-1.5h1.4V40Zm0-2.5H6.3v-1.5h1.4v1.5Zm0-2.5H6.3v-1.5h1.4V35Zm2.5 7.5H8.8v-1.5h1.4v1.5Zm0-2.5H8.8v-1.5h1.4V40Zm0-2.5H8.8v-1.5h1.4v1.5Zm0-2.5H8.8v-1.5h1.4V35Zm0-2.5H8.8v-1.5h1.4v1.5Zm2.5 10h-1.4v-1.5h1.4v1.5Zm0-2.5h-1.4v-1.5h1.4V40Zm0-2.5h-1.4v-1.5h1.4v1.5Zm0-2.5h-1.4v-1.5h1.4V35Zm0-2.5h-1.4v-1.5h1.4v1.5Zm2.5 10h-1.4v-1.5h1.4v1.5Zm0-2.5h-1.4v-1.5h1.4V40Zm0-2.5h-1.4v-1.5h1.4v1.5Zm0-2.5h-1.4v-1.5h1.4V35Zm0-2.5h-1.4v-1.5h1.4v1.5Zm2.5 10h-1.4v-1.5h1.4v1.5Zm0-2.5h-1.4v-1.5h1.4V40Zm0-2.5h-1.4v-1.5h1.4v1.5Zm0-2.5h-1.4v-1.5h1.4V35Zm2.5 7.5h-1.4v-1.5h1.4v1.5Zm0-2.5h-1.4v-1.5h1.4V40Zm0-2.5h-1.4v-1.5h1.4v1.5Zm0-2.5h-1.4v-1.5h1.4V35Zm2.5 7.5h-1.4v-1.5h1.4v1.5Zm0-2.5h-1.4v-1.5h1.4V40Zm0-2.5h-1.4v-1.5h1.4v1.5Zm2.5 5h-1.4v-1.5h1.4v1.5Zm0-2.5h-1.4v-1.5h1.4V40Zm0-2.5h-1.4v-1.5h1.4v1.5Zm0-2.5h-1.4v-1.5h1.4V35Zm2.5 7.5h-1.4v-1.5h1.4v1.5Zm0-2.5h-1.4v-1.5h1.4V40Zm0-2.5h-1.4v-1.5h1.4v1.5Zm0-2.5h-1.4v-1.5h1.4V35Zm2.5 7.5h-1.4v-1.5h1.4v1.5Zm0-2.5h-1.4v-1.5h1.4V40Zm0-2.5h-1.4v-1.5h1.4v1.5Zm0-2.5h-1.4v-1.5h1.4V35Zm0-2.5h-1.4v-1.5h1.4v1.5Zm2.5 10h-1.4v-1.5h1.4v1.5Zm0-2.5h-1.4v-1.5h1.4V40Zm0-2.5h-1.4v-1.5h1.4v1.5Zm0-2.5h-1.4v-1.5h1.4V35Zm0-2.5h-1.4v-1.5h1.4v1.5Zm2.5 10h-1.4v-1.5h1.4v1.5Zm0-2.5h-1.4v-1.5h1.4V40Zm0-2.5h-1.4v-1.5h1.4v1.5Zm0-2.5h-1.4v-1.5h1.4V35Zm0-2.5h-1.4v-1.5h1.4v1.5Zm2.5 10h-1.4v-1.5h1.4v1.5Zm0-2.5h-1.4v-1.5h1.4V40Zm0-2.5h-1.4v-1.5h1.4v1.5Zm0-2.5h-1.4v-1.5h1.4V35Z" fill="#E95F43"/><path d="m22 33.5-2.9 2.8c-.3.3-.8.3-1 0l-5-7 1.6-1.6c.2-.2.6-.2.9 0l6.4 5.8ZM22 33.5l2.9 2.8c.3.3.8.3 1 0l5-7-1.6-1.6a.7.7 0 0 0-.9 0L22 33.5Z" fill="#FFBE1E"/><path d="M12.8 12.3a23 23 0 0 0-.2 3.6c0 5.5 3.1 12.3 9.4 12.3 6.3 0 9.4-6.8 9.4-12.3 0-1.4 0-2.6-.2-3.6-2.5-.8-5.7-1.3-9.2-1.3-3.5 0-6.7.5-9.2 1.3Z" fill="#FFE1B2"/><path d="M31.4 13.4 30.3 12v.7c.1 6.2-2 9-2 9l-3 .3c-2.1.2-4.3.2-6.5 0l-2.9-.4s-2.2-2.7-2-9V12l-1.2 1.4c-.1.6-.3 1.3-.3 2C12.4 21 15.7 29 22 29c6.4 0 9.5-8 9.5-13.5 0-.7 0-1.4-.2-2ZM20 23.3h4.1c.6 0 1 .3 1.3.8-.8.3-2 .5-3.2.5-1.4 0-2.6-.2-3.4-.6.2-.4.7-.7 1.2-.7Z" fill="#A7795E"/><path d="M22.4 22.7c0-1-1-1.2-1.5-1-1 .5-2.2 1.6-3.2.9 0 0 .3 1.5.9 1.5 1.2 0 3.8.1 3.8-1.4Z" fill="#543D38"/><path d="M22 22.7c0-1 1-1.2 1.6-1 1 .5 2.2 1.6 3.2.9 0 0-.4 1.5-1 1.5-1.1 0-3.7.1-3.7-1.4Z" fill="#543D38"/><path d="m33.7 30.3-2.8-1v8.5c0 .4-.2.6-.5.7a36.2 36.2 0 0 1-16.8 0 .7.7 0 0 1-.5-.7v-8.4l-2.8.9V44h23.4V30.3Z" fill="#C55F54"/><path d="m12.4 17 1.9.4 1-5.8-2.8.8a22.3 22.3 0 0 0 0 4.7ZM31.6 17l-1.9.4-1-5.8 2.8.8a22.3 22.3 0 0 1 0 4.7ZM26 13.3l1.7-1.9a32.9 32.9 0 0 0-9.3-.3c1.1 0 5.4.5 7.6 2.2Z" fill="#543D38"/></g><defs><clipPath id="a"><path fill="#fff" d="M0 0h44v44H0z"/></clipPath></defs></svg>